<?xml version="1.0" standalone="no"?>
<!DOCTYPE svg PUBLIC "-//W3C//DTD SVG 20010904//EN"
 "http://www.w3.org/TR/2001/REC-SVG-20010904/DTD/svg10.dtd">
<svg version="1.0" xmlns="http://www.w3.org/2000/svg"
 width="2000.000000pt" height="2000.000000pt" viewBox="0 0 2000.000000 2000.000000"
 preserveAspectRatio="xMidYMid meet">

<g transform="translate(0.000000,2000.000000) scale(0.100000,-0.100000)"
fill="#000000" stroke="none">
<path d="M15260 15735 c-185 -35 -354 -176 -420 -353 -140 -372 135 -772 530
-772 154 0 287 57 400 170 179 179 218 427 105 657 -41 82 -134 184 -209 228
-118 69 -270 96 -406 70z m428 -311 c45 -31 29 -59 -166 -288 -159 -187 -187
-216 -212 -216 -24 0 -47 22 -154 148 -136 159 -149 187 -101 218 14 9 32 13
44 9 11 -3 62 -54 112 -113 50 -59 95 -108 98 -110 4 -1 71 75 150 168 177
210 184 216 229 184z"/>
<path d="M14135 14070 c-44 -10 -91 -23 -105 -28 -24 -10 -23 -11 18 -17 23
-4 42 -10 42 -14 0 -4 -26 -12 -57 -20 -123 -28 -224 -95 -265 -175 -22 -43
-29 -128 -15 -180 l8 -28 25 50 c44 88 75 70 54 -33 -6 -29 -11 -78 -10 -107
1 -29 0 -62 -2 -72 -5 -31 16 -28 34 4 9 17 29 35 43 42 14 6 25 17 25 25 0
16 -32 17 -48 1 -19 -19 -24 -3 -11 46 7 30 16 45 25 44 8 -2 20 8 27 22 13
26 78 74 113 84 18 6 21 3 16 -19 -6 -31 16 -85 34 -85 8 0 14 4 14 9 0 14 89
66 147 86 l52 18 38 -34 c22 -20 67 -52 101 -74 50 -31 62 -43 62 -64 0 -33
16 -95 37 -143 l16 -38 34 30 c38 34 103 41 140 15 20 -14 23 -12 54 22 56 65
84 137 84 224 0 71 -2 80 -31 115 -17 22 -37 61 -44 89 -25 91 -132 173 -275
210 -83 21 -277 19 -380 -5z"/>
<path d="M14178 13534 c-13 -13 -9 -24 10 -24 10 0 35 -9 57 -20 44 -23 69
-26 63 -8 -11 33 -110 72 -130 52z"/>
<path d="M14174 13406 c-11 -28 1 -71 20 -74 34 -7 49 44 20 72 -19 20 -33 20
-40 2z"/>
<path d="M13914 13376 c-11 -28 1 -71 20 -74 34 -7 49 44 20 72 -19 20 -33 20
-40 2z"/>
<path d="M14031 13290 c-7 -25 -25 -68 -41 -97 -31 -58 -28 -63 41 -63 l39 0
-6 58 c-4 31 -10 77 -13 102 l-6 45 -14 -45z"/>
<path d="M8704 13205 c-16 -41 27 -60 50 -22 8 14 8 20 -4 27 -22 14 -40 12
-46 -5z"/>
<path d="M8427 13170 c-45 -36 -44 -102 2 -137 9 -6 36 -17 61 -23 101 -24
123 -44 95 -86 -22 -35 -77 -41 -136 -16 -48 20 -59 19 -59 -4 0 -24 57 -44
125 -44 60 0 69 3 96 29 60 60 27 128 -72 151 -70 16 -99 35 -99 64 0 47 69
69 133 43 34 -15 38 -15 47 2 13 26 -25 41 -104 41 -48 0 -69 -5 -89 -20z"/>
<path d="M14283 13125 c-18 -19 -50 -39 -73 -45 -37 -10 -56 -30 -27 -30 41 1
147 74 147 101 0 16 -15 8 -47 -26z"/>
<path d="M8710 12985 c0 -118 1 -125 20 -125 19 0 20 7 20 125 0 118 -1 125
-20 125 -19 0 -20 -7 -20 -125z"/>
<path d="M8873 13090 c-39 -24 -53 -48 -53 -95 0 -75 51 -125 127 -125 21 0
49 7 61 16 29 20 36 14 27 -25 -12 -57 -77 -77 -150 -47 -28 12 -36 12 -45 1
-27 -32 87 -65 159 -45 69 18 81 49 81 208 0 125 -1 132 -20 132 -11 0 -20 -7
-20 -15 0 -14 -3 -14 -30 0 -40 21 -99 19 -137 -5z m112 -24 c42 -18 59 -48
51 -92 -8 -42 -39 -64 -88 -64 -92 0 -119 119 -35 155 40 18 32 17 72 1z"/>
<path d="M9170 12985 c0 -118 1 -125 20 -125 18 0 20 7 20 58 0 74 16 129 41
142 11 6 36 10 57 8 49 -4 62 -31 62 -130 0 -71 2 -78 20 -78 19 0 20 7 20 96
0 92 -1 97 -29 125 -24 23 -38 29 -73 29 -24 0 -53 -7 -64 -15 -25 -19 -34
-19 -34 0 0 8 -9 15 -20 15 -19 0 -20 -7 -20 -125z"/>
<path d="M9630 13011 c0 -93 1 -100 26 -125 21 -21 36 -26 73 -26 26 0 56 7
69 16 20 14 22 14 22 0 0 -9 9 -16 20 -16 19 0 20 7 20 125 0 118 -1 125 -20
125 -18 0 -20 -7 -20 -79 0 -69 -3 -84 -23 -107 -31 -35 -82 -38 -109 -5 -14
19 -18 40 -18 107 0 77 -2 84 -20 84 -19 0 -20 -7 -20 -99z"/>
<path d="M9950 12940 l0 -170 25 0 c24 0 25 3 25 61 l0 60 22 -15 c13 -9 43
-16 71 -16 42 0 54 5 83 34 31 31 34 40 34 90 0 47 -4 61 -28 87 -23 26 -38
33 -80 37 -38 3 -58 0 -76 -12 -31 -20 -40 -20 -32 -1 4 11 -1 15 -19 15 l-25
0 0 -170z m165 126 c57 -24 74 -90 35 -139 -52 -66 -150 -29 -150 57 0 49 26
81 78 95 1 1 18 -5 37 -13z"/>
<path d="M14380 12735 c11 -14 34 -14 47 -1 4 4 4 7 -2 6 -5 -1 -12 -1 -15 0
-3 1 -13 3 -23 5 -14 3 -16 0 -7 -10z"/>
<path d="M14360 12721 c0 -10 19 -25 25 -20 1 2 -3 10 -11 17 -8 7 -14 8 -14
3z"/>
<path d="M15283 12453 c-91 -195 -160 -496 -199 -861 -3 -35 -8 -62 -10 -60
-6 7 -63 274 -89 421 -36 204 -55 366 -55 469 l0 88 -44 0 c-40 0 -47 -4 -66
-34 -31 -51 -122 -131 -183 -160 -66 -33 -155 -51 -203 -41 -52 9 -101 61
-110 114 -13 80 -68 39 -133 -99 -72 -154 -125 -375 -163 -683 -13 -106 -25
-171 -29 -159 -11 29 -69 371 -85 502 -8 63 -14 167 -14 232 0 77 -4 118 -11
118 -5 0 -35 -12 -65 -26 -63 -30 -120 -92 -344 -379 -268 -343 -279 -355
-317 -355 -31 0 -707 82 -779 95 l-30 5 -42 -162 c-23 -90 -38 -166 -34 -170
12 -12 467 -125 620 -154 83 -15 191 -28 274 -31 133 -6 139 -5 190 20 73 36
203 142 329 269 58 59 109 105 113 101 3 -3 6 -36 6 -72 0 -175 65 -923 125
-1446 52 -448 47 -415 74 -434 l24 -15 -7 60 -7 61 54 12 c131 29 126 26 129
84 3 44 6 52 23 54 11 1 101 13 200 27 99 14 313 43 475 66 162 22 322 45 354
50 33 5 61 8 62 7 2 -1 11 -61 20 -132 10 -72 20 -133 23 -137 6 -7 212 20
384 50 l99 16 -6 41 c-13 91 -9 221 8 253 34 65 77 197 72 218 -9 33 -94 105
-169 142 -37 19 -67 37 -67 41 0 13 51 81 58 77 4 -2 37 -22 73 -44 37 -22 96
-57 132 -76 l65 -36 77 96 c102 130 192 268 252 389 82 162 104 270 78 370
-48 186 -359 687 -613 985 -150 176 -233 247 -314 270 -27 7 -48 16 -48 20 0
4 -15 10 -32 13 -18 3 -45 9 -59 12 -24 6 -28 2 -66 -82z m672 -1157 c68 -93
79 -123 66 -172 -14 -51 -69 -159 -161 -317 -87 -149 -82 -151 -100 53 -6 74
-24 261 -40 414 -17 154 -30 287 -30 295 1 21 198 -183 265 -273z"/>
<path d="M14836 8969 c-33 -108 -102 -464 -132 -689 -17 -131 -35 -630 -21
-630 4 0 7 -20 7 -44 0 -104 19 -36 74 267 32 177 71 389 87 471 l29 149 -16
241 c-9 133 -18 243 -20 245 -2 2 -5 -2 -8 -10z"/>
<path d="M10560 7245 c0 -8 9 -15 20 -15 11 0 20 7 20 15 0 8 -9 15 -20 15
-11 0 -20 -7 -20 -15z"/>
<path d="M4295 7246 c-5 -3 -28 -7 -49 -11 l-39 -6 6 -72 c13 -148 62 -271
138 -347 85 -85 189 -103 264 -46 l34 26 15 -52 c37 -129 71 -414 78 -647 l3
-104 -46 -13 c-26 -8 -60 -28 -76 -44 l-30 -30 -22 79 -21 80 45 66 c50 74 60
102 50 142 -10 40 -77 103 -109 103 -21 0 -29 7 -37 30 -13 34 -19 36 -60 14
-17 -8 -32 -14 -33 -12 -2 2 -28 43 -59 91 -40 62 -57 98 -57 121 0 19 -11 49
-24 69 -21 30 -22 38 -10 48 21 17 17 57 -6 69 -61 33 -216 18 -318 -30 -113
-53 -182 -149 -204 -285 -6 -36 -9 -67 -6 -70 2 -2 49 -10 104 -16 120 -14
281 -6 353 17 52 17 101 61 101 90 0 28 16 13 59 -57 44 -70 44 -72 27 -98
-63 -96 -86 -189 -67 -268 11 -45 75 -153 90 -153 4 0 33 23 66 50 33 28 62
50 66 50 9 0 73 -266 93 -385 32 -189 66 -553 66 -704 0 -71 -9 -43 -20 65
-29 265 -88 533 -150 676 -55 128 -105 189 -185 229 -58 28 -72 31 -125 26
-66 -6 -140 -45 -183 -97 l-24 -28 -58 20 c-126 42 -253 -26 -350 -187 -93
-155 -100 -328 -18 -458 13 -21 30 -40 38 -43 30 -12 408 201 497 281 69 60
95 134 67 188 -16 31 -71 87 -85 87 -7 0 -24 21 -38 47 l-27 47 38 38 c76 78
158 96 248 54 123 -57 209 -231 274 -552 37 -180 89 -671 74 -696 -2 -5 -207
-8 -455 -8 l-451 0 5 -83 c6 -119 36 -155 137 -166 l56 -6 46 -335 c25 -184
56 -411 68 -505 12 -93 25 -178 27 -187 5 -17 43 -18 619 -18 l613 0 6 28 c3
15 35 245 71 512 36 267 67 491 70 498 2 6 21 12 42 12 21 0 52 9 70 20 47 28
63 67 63 155 l0 75 -411 0 -412 0 6 228 c6 217 12 289 38 447 l12 70 44 -49
44 -49 35 19 c74 39 148 139 173 231 15 55 15 194 1 261 -7 29 -10 55 -8 57 2
3 15 6 28 7 19 2 25 -2 26 -17 1 -12 6 -31 13 -42 9 -18 7 -28 -8 -55 -26 -44
-31 -93 -16 -151 27 -105 90 -132 315 -132 85 0 177 4 204 8 l48 9 -7 56 c-20
161 -114 275 -270 327 -45 15 -222 30 -317 27 -32 -1 -40 3 -53 27 -37 74
-101 122 -178 136 -20 4 -37 9 -37 12 0 20 48 89 89 125 72 65 166 91 259 72
l31 -6 -16 -32 c-9 -17 -17 -55 -17 -84 -1 -48 2 -57 30 -82 50 -44 204 -92
329 -102 l40 -3 0 90 c0 80 -3 95 -27 136 -15 26 -42 59 -60 75 -77 64 -227
106 -254 70 -7 -10 -10 -24 -7 -31 4 -11 -2 -12 -34 -3 -56 15 -160 5 -218
-23 -65 -30 -136 -102 -160 -161 -16 -37 -27 -50 -57 -62 -46 -17 -45 -22 -18
110 27 131 54 230 87 314 28 71 39 83 50 55 11 -30 84 -58 149 -58 137 1 263
80 389 247 l29 39 -44 39 c-144 128 -384 158 -580 71 -67 -29 -90 -49 -90 -78
0 -27 24 -49 70 -64 l35 -11 0 -68 c0 -52 -7 -85 -33 -150 -18 -46 -46 -136
-62 -200 -16 -65 -32 -130 -36 -147 -5 -21 -11 18 -20 130 -20 243 -55 457
-89 546 -3 9 2 25 12 37 15 18 24 20 53 13 19 -4 47 -3 63 2 38 13 37 58 -4
122 -63 100 -189 198 -304 237 -51 17 -179 32 -200 24z m391 -1629 l32 -52 -7
-162 c-3 -89 -9 -164 -12 -167 -3 -4 -9 35 -13 86 -7 98 -33 301 -42 331 -10
34 11 16 42 -36z m159 -224 c-8 -23 -35 -219 -45 -333 -5 -63 -10 -184 -10
-268 0 -128 -2 -154 -15 -159 -9 -3 -18 -3 -21 0 -3 2 -1 94 5 203 6 110 13
300 17 424 l7 224 33 -39 c19 -22 32 -45 29 -52z"/>
<path d="M8011 7170 c1 -44 6 -80 10 -80 5 0 9 36 9 80 0 49 -4 80 -11 80 -6
0 -9 -29 -8 -80z"/>
<path d="M8510 7220 c0 -28 -2 -29 -26 -19 -40 15 -74 -11 -74 -56 0 -41 22
-56 74 -53 l36 3 0 78 c0 42 -2 77 -5 77 -3 0 -5 -13 -5 -30z m-8 -55 c10 -22
9 -29 -9 -46 -26 -26 -60 -18 -69 17 -13 52 56 77 78 29z"/>
<path d="M9532 7170 c-1 -51 2 -80 7 -71 6 9 11 10 15 2 10 -16 52 -13 70 5
43 42 -2 116 -57 95 -24 -9 -26 -8 -30 22 -2 18 -4 -6 -5 -53z m92 -2 c12 -20
2 -44 -27 -62 -19 -12 -57 17 -57 44 0 40 62 53 84 18z"/>
<path d="M9915 7242 c-39 -8 -37 -20 2 -15 51 7 62 -9 34 -48 -29 -38 -27 -48
4 -19 45 42 19 94 -40 82z"/>
<path d="M7871 7169 c-18 -39 -30 -73 -27 -76 2 -3 9 5 16 16 15 30 96 31 105
1 3 -11 11 -20 16 -20 5 0 3 15 -5 33 -8 17 -22 51 -33 74 -10 24 -23 43 -29
43 -6 0 -26 -32 -43 -71z m79 -21 c0 -5 -16 -8 -35 -8 -39 0 -42 7 -19 52 l17
32 18 -35 c10 -19 18 -37 19 -41z"/>
<path d="M10072 7168 l3 -73 58 -3 c46 -2 57 0 57 13 0 11 -11 15 -40 15 l-40
0 0 60 c0 54 -2 60 -20 60 -19 0 -21 -5 -18 -72z"/>
<path d="M8111 7201 c-8 -5 -20 -7 -28 -4 -10 4 -13 -8 -13 -51 0 -31 5 -56
10 -56 6 0 10 21 10 46 0 37 4 47 20 51 11 3 20 9 20 14 0 11 -1 11 -19 0z"/>
<path d="M8172 7194 c-41 -28 -20 -104 28 -104 26 0 50 10 50 21 0 6 -9 5 -20
-1 -24 -13 -56 -5 -64 15 -6 16 4 18 62 17 34 -2 41 12 20 40 -20 25 -51 30
-76 12z m66 -21 c2 -9 -9 -13 -38 -13 -37 0 -41 2 -30 16 15 17 61 15 68 -3z"/>
<path d="M8295 7196 c-15 -10 -12 -12 18 -8 20 2 38 -1 42 -8 8 -13 -14 -32
-27 -24 -14 9 -48 -16 -48 -36 0 -20 24 -29 68 -27 19 1 22 7 22 49 0 26 -4
50 -10 53 -20 13 -49 13 -65 1z m65 -64 c0 -14 -23 -32 -41 -32 -21 0 -33 16
-24 30 7 12 65 14 65 2z"/>
<path d="M8550 7205 c0 -5 10 -33 21 -61 24 -58 20 -89 -11 -81 -11 3 -20 1
-20 -5 0 -5 12 -8 27 -6 22 2 31 15 59 76 18 39 29 72 24 72 -4 0 -16 -21 -26
-46 l-18 -46 -27 53 c-16 30 -28 50 -29 44z"/>
<path d="M8758 7203 c-32 -8 -19 -19 18 -15 31 4 35 2 32 -14 -2 -11 -10 -19
-18 -20 -42 -3 -48 -5 -54 -20 -10 -27 13 -45 55 -42 39 3 39 3 39 45 0 59
-22 79 -72 66z m50 -82 c-4 -22 -52 -21 -56 1 -2 9 4 18 15 20 27 6 44 -3 41
-21z"/>
<path d="M8960 7201 c-8 -5 -18 -7 -22 -5 -4 3 -7 -21 -7 -53 1 -54 2 -55 8
-18 9 53 17 65 46 65 25 0 30 -10 38 -75 3 -24 4 -22 6 11 1 43 15 64 42 64
23 0 31 -14 31 -56 0 -19 4 -37 9 -40 11 -7 12 76 0 94 -8 13 -19 14 -76 11
-11 0 -29 2 -40 5 -11 4 -27 2 -35 -3z"/>
<path d="M9170 7190 c-27 -27 -26 -65 2 -84 26 -19 64 -21 74 -5 4 7 0 9 -14
5 -23 -8 -62 8 -62 24 0 6 11 10 25 10 14 0 25 5 25 10 0 6 -12 10 -26 10 -31
0 -28 24 5 28 31 5 55 -16 40 -34 -9 -11 -8 -14 5 -14 24 0 20 36 -6 54 -30
21 -44 20 -68 -4z"/>
<path d="M9297 7190 c-8 -35 -5 -100 4 -100 4 0 9 21 11 48 3 45 4 47 33 47
29 0 30 -2 33 -47 2 -27 7 -48 12 -48 5 0 10 21 12 48 3 45 4 47 33 47 29 0
30 -2 36 -50 l6 -50 1 53 c2 46 -1 54 -22 63 -17 8 -29 8 -45 0 -15 -9 -27 -9
-41 -1 -14 7 -26 8 -39 0 -14 -7 -21 -6 -24 3 -2 6 -7 1 -10 -13z"/>
<path d="M9697 7203 c-25 -6 -39 -47 -27 -78 11 -29 52 -42 83 -26 20 10 19
11 -8 6 -32 -6 -72 15 -62 32 3 5 23 8 43 7 20 -2 41 -1 45 2 9 5 -10 54 -22
54 -4 0 -13 2 -21 4 -7 2 -21 2 -31 -1z m61 -30 c2 -9 -9 -13 -37 -13 -32 0
-39 3 -34 16 7 18 64 16 71 -3z"/>
<path d="M9840 7200 c-8 -5 -18 -6 -22 -4 -4 3 -7 -21 -6 -53 1 -49 2 -52 5
-16 3 29 11 47 25 58 24 16 22 30 -2 15z"/>
<path d="M10217 7192 c-36 -40 -9 -102 45 -102 51 0 78 69 40 103 -24 22 -65
21 -85 -1z m68 -42 c0 -18 -6 -26 -23 -28 -13 -2 -25 3 -28 12 -10 26 4 48 28
44 17 -2 23 -10 23 -28z"/>
<path d="M10356 7191 c-35 -38 -9 -91 45 -91 16 0 29 -4 29 -9 0 -14 -29 -22
-57 -15 -19 5 -24 3 -21 -7 7 -22 76 -24 99 -3 15 13 19 31 19 79 l0 62 -49 1
c-35 1 -53 -4 -65 -17z m78 -28 c10 -24 -21 -46 -45 -32 -19 10 -25 30 -12 42
13 14 51 7 57 -10z"/>
<path d="M10562 7153 c2 -46 7 -59 21 -61 15 -3 17 5 17 57 0 55 -2 61 -20 61
-19 0 -21 -5 -18 -57z"/>
<path d="M10630 7148 c0 -45 3 -58 15 -58 10 0 15 10 15 29 0 42 9 61 30 61
21 0 30 -19 30 -61 0 -19 5 -29 15 -29 11 0 15 12 15 44 0 57 -17 74 -75 74
l-45 -1 0 -59z"/>
<path d="M6690 6325 l0 -445 2610 0 2610 0 0 445 0 445 -2610 0 -2610 0 0
-445z m2664 179 c8 -21 -11 -44 -36 -44 -21 0 -33 22 -24 45 7 20 52 19 60 -1z
m-750 -18 c42 -18 66 -51 66 -94 0 -39 -14 -71 -41 -92 -19 -15 -19 -16 6 -50
48 -64 49 -70 17 -70 -24 0 -36 9 -63 50 -32 46 -37 50 -76 50 l-43 0 0 -50
c0 -49 -1 -50 -30 -50 l-30 0 0 160 0 160 80 0 c46 0 95 -6 114 -14z m1096
-36 c0 -27 3 -30 30 -30 23 0 30 -4 30 -20 0 -16 -7 -20 -30 -20 l-31 0 3 -72
3 -73 33 0 c23 0 34 -5 38 -19 12 -38 -71 -51 -106 -16 -17 17 -20 33 -20 100
0 73 -2 80 -20 80 -13 0 -20 7 -20 20 0 13 7 20 20 20 16 0 20 7 20 30 0 25 4
30 25 30 21 0 25 -5 25 -30z m-825 -34 c41 -17 63 -50 67 -96 l3 -35 -95 -5
-95 -5 23 -22 c24 -25 70 -30 103 -12 15 7 24 7 35 -2 22 -18 17 -29 -21 -45
-65 -27 -135 -11 -169 38 -21 30 -21 112 1 145 17 26 64 52 96 53 10 0 33 -6
52 -14z m270 0 c19 -8 35 -11 35 -5 0 5 12 9 26 9 l26 0 -4 -127 c-4 -140 -12
-164 -61 -184 -55 -23 -177 -6 -177 25 1 30 16 37 53 21 66 -27 120 -11 129
39 5 24 5 24 -27 9 -65 -31 -145 6 -166 77 -15 51 11 107 61 132 43 22 60 22
105 4z m408 3 c41 -11 41 -12 27 -40 -9 -15 -15 -17 -30 -9 -36 19 -100 9
-100 -15 0 -13 30 -26 92 -39 15 -4 35 -18 44 -31 38 -58 -28 -113 -122 -102
-56 6 -77 22 -64 48 9 15 15 17 36 9 40 -15 94 -12 101 5 8 22 1 26 -53 36
-55 10 -84 33 -84 65 0 37 11 56 44 70 38 16 60 17 109 3z m412 -3 c38 -16 65
-60 65 -106 l0 -30 -90 0 c-49 0 -90 -3 -90 -7 0 -3 7 -15 17 -25 18 -20 73
-24 105 -7 16 8 24 8 34 -3 13 -12 12 -17 -7 -34 -16 -14 -36 -19 -80 -19 -52
0 -62 3 -90 31 -59 59 -43 159 31 196 42 22 60 22 105 4z m253 -11 c2 -16 -5
-23 -30 -30 -43 -13 -58 -45 -58 -127 0 -66 -1 -68 -25 -68 l-25 0 0 120 0
120 25 0 c14 0 25 -5 25 -10 0 -6 12 -4 28 4 35 20 56 16 60 -9z m-868 -105
l0 -120 -25 0 -25 0 0 120 0 120 25 0 25 0 0 -120z"/>
<path d="M8470 6384 l0 -66 57 4 c43 4 61 10 75 28 43 53 7 100 -77 100 l-55
0 0 -66z"/>
<path d="M8777 6362 c-31 -34 -21 -42 54 -42 73 0 75 2 41 43 -20 23 -74 22
-95 -1z"/>
<path d="M9052 6364 c-29 -20 -30 -76 -2 -104 44 -44 123 -12 123 50 0 59 -69
91 -121 54z"/>
<path d="M9867 6362 c-31 -34 -21 -42 48 -42 36 0 65 3 65 8 0 4 -7 18 -16 30
-19 28 -74 30 -97 4z"/>
<path d="M13574 4098 c-10 -12 -14 -18 -7 -15 6 4 13 4 16 0 2 -5 3 -3 1 3 -1
6 3 17 9 23 6 6 9 11 6 11 -3 0 -14 -10 -25 -22z"/>
<path d="M13362 3737 c-8 -10 -6 -22 9 -46 l20 -33 -21 6 c-57 16 -65 18 -59
12 3 -4 25 -12 48 -19 54 -15 54 -31 0 -35 -44 -3 -73 13 -65 35 3 8 1 11 -4
8 -25 -15 8 -55 46 -55 14 0 23 -4 19 -9 -13 -22 -172 -72 -323 -101 -227 -43
-231 -45 -197 -109 28 -56 56 -61 342 -61 143 0 362 3 487 7 198 5 228 8 236
23 6 12 -3 63 -29 161 l-38 144 -190 -3 -191 -2 -6 25 c-8 30 -40 65 -60 65
-7 0 -18 -6 -24 -13z m51 -15 c21 -23 38 -70 28 -77 -12 -7 -83 73 -76 85 9
15 30 12 48 -8z"/>
<path d="M15002 3737 c-8 -10 -6 -22 9 -46 l20 -33 -21 6 c-57 16 -65 18 -59
12 3 -4 25 -12 48 -19 54 -15 54 -31 0 -35 -44 -3 -73 13 -65 35 3 8 1 11 -4
8 -26 -16 9 -55 48 -55 26 -1 26 -1 8 -15 -39 -30 -135 -58 -320 -96 -172 -34
-205 -46 -206 -72 0 -24 34 -67 67 -82 35 -17 69 -18 517 -12 391 5 482 9 494
20 12 12 8 36 -25 163 l-39 149 -188 0 -188 0 -15 30 c-26 51 -60 68 -81 42z
m51 -15 c8 -9 20 -29 26 -45 8 -21 8 -27 -3 -27 -18 0 -78 68 -71 81 9 14 30
11 48 -9z"/>
</g>
</svg>
